<?xml version="1.0" encoding="UTF-8"?>
<svg id="Layer_2" data-name="Layer 2" xmlns="http://www.w3.org/2000/svg" viewBox="0 0 180.25 180.25">
  <defs>
    <style>
      .cls-1 {
        fill: #033;
      }

      .cls-2 {
        stroke-width: 6px;
      }

      .cls-2, .cls-3 {
        fill: #fff;
        stroke: #fff;
        stroke-miterlimit: 10;
      }

      .cls-3 {
        stroke-width: 4px;
      }
    </style>
  </defs>
  <g id="Layer_1-2" data-name="Layer 1">
    <circle class="cls-1" cx="90.12" cy="90.12" r="90.12"/>
    <polygon class="cls-3" points="122.66 72.09 82.49 71.19 82.64 64.56 127.61 65.92 122.66 72.09"/>
    <path class="cls-3" d="M134.53,65.3l-.28-9.33h-6.64v9.95c-18.04,1.57-27.1,23.47-16.66,38.06l-8.22,7.09c-23.52-16.62-53.9,4.86-45.47,32.83,6.48,21.53,36.19,26.66,50.42,9.26,9.25-11.29,8.2-25.13.78-37.05l7.01-7c1.08-.28,5.79,2.97,7.51,3.57,7.83,2.74,14.8,1.37,21.88-2.69h0l4.67-4.6h0c12.41-14.6,3.89-36.94-15-40.1ZM90.97,153.72c-27.79,8.42-36.22-34.95-9.32-39.19,24.92-3.94,32.54,32.16,9.32,39.19ZM143.53,98.76c-9.52,12.9-30.05,4.72-27.81-11.87.69-5.09,6.62-11.31,11.72-12.18,14.48-2.48,24.8,12.24,16.09,24.05Z"/>
    <polygon class="cls-3" points="26.79 56.08 95.58 18.4 126.24 34.92 124.33 40.82 95.58 25.68 33.42 60.06 33.42 129.74 55.82 129.74 55.82 136.37 26.79 136.37 26.79 56.08"/>
    <rect class="cls-3" x="45.66" y="55.06" width="6.64" height="26.53" transform="translate(-20.43 115.76) rotate(-88.72)"/>
    <path class="cls-2" d="M60.17,71.89c1.01.8,2.5,1.13,4.47.47,4.44-1.48,3.15-9.45-2.87-8.21-.82.17-1.49.55-1.99,1.08"/>
    <path class="cls-2" d="M86.28,71.5c-3.61,3.81-10.1-1.59-6.56-5.94,1.71-2.11,4.22-1.95,5.94-.71"/>
  </g>
</svg>