<?xml version="1.0" encoding="UTF-8"?>
<svg id="Layer_2" data-name="Layer 2" xmlns="http://www.w3.org/2000/svg" viewBox="0 0 529.98 118.44">
  <defs>
    <style>
      .cls-1 {
        fill: #033;
        font-family: Lithos-Bold, Lithos;
        font-size: 68.88px;
        font-weight: 700;
      }

      .cls-2 {
        fill: #3cc;
        stroke: #3cc;
        stroke-miterlimit: 10;
        stroke-width: 3px;
      }

      .cls-3 {
        letter-spacing: 0em;
      }
    </style>
  </defs>
  <g id="Layer_1-2" data-name="Layer 1">
    <text class="cls-1" transform="translate(107.02 82.13)"><tspan x="0" y="0">Pr</tspan><tspan class="cls-3" x="92.43" y="0">o</tspan><tspan x="146.91" y="0">f assist</tspan></text>
    <g>
      <polygon class="cls-2" points="77.58 44.31 45.7 43.6 45.82 38.33 81.51 39.41 77.58 44.31"/>
      <path class="cls-2" d="M87,38.92l-.22-7.4h-5.27v7.9c-14.32,1.24-21.5,18.63-13.22,30.2l-6.53,5.63c-18.67-13.19-42.77,3.86-36.08,26.05,5.15,17.09,28.72,21.16,40.01,7.35,7.34-8.96,6.5-19.94.62-29.4l5.56-5.55c.86-.22,4.59,2.35,5.96,2.83,6.21,2.18,11.74,1.09,17.36-2.13h0l3.7-3.65h0c9.85-11.59,3.09-29.31-11.9-31.82ZM52.43,109.08c-22.06,6.68-28.74-27.73-7.39-31.1,19.78-3.13,25.82,25.52,7.39,31.1ZM94.14,65.47c-7.55,10.24-23.84,3.74-22.07-9.42.54-4.04,5.25-8.97,9.3-9.66,11.49-1.97,19.68,9.72,12.77,19.09Z"/>
      <polygon class="cls-2" points="1.5 31.6 56.09 1.71 80.42 14.82 78.9 19.49 56.09 7.48 6.77 34.76 6.77 90.05 24.54 90.05 24.54 95.32 1.5 95.32 1.5 31.6"/>
      <rect class="cls-2" x="16.48" y="30.79" width="5.27" height="21.05" transform="translate(-22.63 59.5) rotate(-88.72)"/>
      <path class="cls-2" d="M27.99,44.15c.81.64,1.99.9,3.55.38,3.52-1.17,2.5-7.5-2.28-6.52-.65.14-1.18.44-1.58.86"/>
      <path class="cls-2" d="M48.71,43.84c-2.87,3.02-8.01-1.27-5.21-4.72,1.36-1.67,3.35-1.55,4.72-.56"/>
    </g>
  </g>
</svg>